<svg width="1000" height="1000" viewBox="0 0 1000 1000" fill="none" xmlns="http://www.w3.org/2000/svg">
<path d="M246.305 287.014C246.305 287.014 348.566 280.197 348.566 190.396C348.566 100.595 556.612 24.4524 749.848 131.297C943.084 238.141 680.511 431.746 872.607 509.984C1064.7 588.223 1061.29 966.738 547.514 915.596C33.7341 864.454 -1.51595 543.898 41.7031 404.096C84.9221 264.293 246.305 287.014 246.305 287.014Z" fill="#F2F0F0"/>
<path d="M419.446 129.385H875.474V443.883H419.446L419.446 129.385Z" fill="#10487A"/>
<path d="M461.399 429.373H845.706" stroke="white" stroke-width="1.36" stroke-linecap="round"/>
<path d="M792.468 195.267H857.303V297.701H792.468V195.267Z" fill="#9BADF9" stroke="#1C1C1C" stroke-width="1.36" stroke-linecap="round"/>
<path d="M461.399 397.647H845.706V417.996H461.399V397.647Z" fill="white"/>
<path opacity="0.39" d="M875.475 129.385H749.952C763.46 136.133 773.755 146.912 756.965 162.32C725.066 191.605 840.098 167.007 841.399 181.137C842.701 195.267 799.839 224.022 822.836 265.848C845.833 307.674 873.563 365.414 833.304 379.429C793.044 393.444 721.001 384.634 723.039 411.247C724.79 434.279 486.964 410.096 419.493 417.892V443.883H875.521L875.475 129.385Z" fill="#2E45CC"/>
<path fill-rule="evenodd" clip-rule="evenodd" d="M419.446 129.385H875.474V443.883H419.446L419.446 129.385Z" stroke="#1C1C1C" stroke-width="1.36" stroke-linecap="round"/>
<path d="M419.446 129.385H875.474V162.32H419.446L419.446 129.385Z" fill="white"/>
<path opacity="0.71" d="M756.919 162.32H875.475V129.385H749.952C763.414 136.133 773.709 146.912 756.919 162.32Z" fill="#AFC0F9"/>
<path fill-rule="evenodd" clip-rule="evenodd" d="M419.446 129.385H875.474V162.32H419.446L419.446 129.385Z" stroke="#1C1C1C" stroke-width="1.36" stroke-linecap="round"/>
<path fill-rule="evenodd" clip-rule="evenodd" d="M419.446 129.385H875.474V162.32H419.446L419.446 129.385Z" stroke="#1C1C1C" stroke-width="1.36" stroke-linecap="round"/>
<path d="M690.771 488.484H875.474V601.144H690.771V488.484Z" fill="#10487A"/>
<path opacity="0.64" d="M691.186 601.144H875.44V488.484H805.124C809.647 495.096 816.903 499.324 824.885 500C846.454 502.303 856.254 541.135 829.987 547.791C803.719 554.447 839.787 589.755 806.068 590.538C772.35 591.321 696.668 581.129 690.771 597.988V600.176C690.877 600.512 691.016 600.836 691.186 601.144Z" fill="#1C479B"/>
<path fill-rule="evenodd" clip-rule="evenodd" d="M690.771 488.484H875.474V601.144H690.771V488.484Z" stroke="#1C1C1C" stroke-width="1.36"/>
<path d="M535.906 211.839H771.198V379.429H535.906V211.839Z" fill="#1C1C1C" stroke="#1C1C1C" stroke-width="1.36" stroke-linecap="round"/>
<path d="M521.627 195.267H756.919V362.858H521.627L521.627 195.267Z" fill="white"/>
<path opacity="0.71" d="M756.919 195.267H665.852C666.036 198.538 668.408 201.612 674.696 203.893C697.44 212.126 741.753 208.499 731.55 251.108C721.346 293.716 723.707 315.113 734.693 334.022C744.908 351.595 552.835 343.05 521.65 353.426V362.858H756.919V195.267Z" fill="#AFC0F9"/>
<path fill-rule="evenodd" clip-rule="evenodd" d="M521.627 195.267H756.919V362.858H521.627L521.627 195.267Z" stroke="#1C1C1C" stroke-width="1.36" stroke-linecap="round"/>
<path d="M521.627 181.137H756.919V203.893H521.627L521.627 181.137Z" fill="#FCE1A7"/>
<path opacity="0.64" d="M756.919 181.137H674.684C667.774 187.195 658.781 198.135 674.684 203.893H756.907L756.919 181.137Z" fill="#F9BF30"/>
<path fill-rule="evenodd" clip-rule="evenodd" d="M521.627 181.137H756.919V203.893H521.627L521.627 181.137Z" stroke="#1C1C1C" stroke-width="1.36"/>
<path d="M438.494 195.267H505.931V221.546H438.494V195.267Z" fill="#C8D5FC" stroke="#1C1C1C" stroke-width="1.36" stroke-linecap="round"/>
<path d="M438.494 233.35H505.931V325.465H438.494V233.35Z" fill="#9BADF9" stroke="#1C1C1C" stroke-width="1.36" stroke-linecap="round"/>
<path d="M792.468 316.886H857.303H792.468Z" fill="white"/>
<path d="M792.468 316.886H857.303" stroke="#1C1C1C" stroke-width="1.36" stroke-linecap="round"/>
<path d="M367.924 696.346C367.924 696.346 385.682 688.284 383.586 718.652C381.49 749.019 376.792 788.714 392.741 823.227C392.741 791.858 392.269 658.424 392.269 658.424L367.924 696.346Z" fill="#9BADF9"/>
<path d="M193.171 649.372L130.525 650.029C130.525 650.029 204.768 649.637 207.382 673.164C209.996 696.691 302.549 661.142 311.957 687.801C321.366 714.46 393.524 709.762 392.741 649.372" fill="#9BADF9"/>
<path d="M792.469 337.108H857.303H792.469Z" fill="white"/>
<path d="M792.469 337.108H857.303" stroke="#1C1C1C" stroke-width="1.36" stroke-linecap="round"/>
<path d="M792.469 357.318H857.303H792.469Z" fill="white"/>
<path d="M792.469 357.318H857.303" stroke="#1C1C1C" stroke-width="1.36" stroke-linecap="round"/>
<path d="M715.611 334.022V488.484V334.022Z" fill="white"/>
<path d="M715.611 334.022V488.484" stroke="#1C1C1C" stroke-width="1.36" stroke-linecap="round"/>
<path d="M715.254 345.676C720.839 345.676 725.365 341.149 725.365 335.565C725.365 329.981 720.839 325.454 715.254 325.454C709.67 325.454 705.144 329.981 705.144 335.565C705.144 341.149 709.67 345.676 715.254 345.676Z" fill="#F9BF30" stroke="#1C1C1C" stroke-width="1.36" stroke-linecap="round"/>
<path d="M440.072 150.217C442.482 150.217 444.436 148.263 444.436 145.853C444.436 143.442 442.482 141.488 440.072 141.488C437.661 141.488 435.707 143.442 435.707 145.853C435.707 148.263 437.661 150.217 440.072 150.217Z" fill="#F9BF30" stroke="#1C1C1C" stroke-width="1.36" stroke-linecap="round"/>
<path d="M456.574 150.217C458.984 150.217 460.938 148.263 460.938 145.853C460.938 143.442 458.984 141.488 456.574 141.488C454.164 141.488 452.209 143.442 452.209 145.853C452.209 148.263 454.164 150.217 456.574 150.217Z" fill="#F9BF30" stroke="#1C1C1C" stroke-width="1.36" stroke-linecap="round"/>
<path d="M473.088 150.217C475.498 150.217 477.452 148.263 477.452 145.853C477.452 143.442 475.498 141.488 473.088 141.488C470.677 141.488 468.723 143.442 468.723 145.853C468.723 148.263 470.677 150.217 473.088 150.217Z" fill="#F9BF30" stroke="#1C1C1C" stroke-width="1.36" stroke-linecap="round"/>
<path d="M851.556 145.853H831.162H851.556Z" fill="white"/>
<path d="M851.556 145.853H831.162" stroke="#1C1C1C" stroke-width="1.36" stroke-linecap="round"/>
<path d="M154.904 649.372H392.741V815.166" stroke="#1C1C1C" stroke-width="1.36" stroke-linecap="round"/>
<path d="M455.871 340.114H505.931H455.871Z" fill="white"/>
<path d="M455.871 340.114H505.931" stroke="#1C1C1C" stroke-width="1.36" stroke-linecap="round"/>
<path d="M455.871 354.566H505.931H455.871Z" fill="white"/>
<path d="M455.871 354.566H505.931" stroke="#1C1C1C" stroke-width="1.36" stroke-linecap="round"/>
<path fill-rule="evenodd" clip-rule="evenodd" d="M717.972 526.106C717.985 535.412 725.526 542.953 734.831 542.966C744.14 542.959 751.684 535.415 751.691 526.106V516.894C751.691 507.583 744.142 500.035 734.831 500.035C725.52 500.035 717.972 507.583 717.972 516.894V526.106ZM722.993 516.871C722.999 510.335 728.296 505.039 734.831 505.032C741.369 505.039 746.669 510.333 746.681 516.871V526.083C746.816 530.403 744.588 534.453 740.868 536.653C737.148 538.853 732.526 538.853 728.806 536.653C725.086 534.453 722.858 530.403 722.993 526.083V516.871Z" fill="#7387F9"/>
<path d="M734.831 542.966L734.83 543.646H734.832L734.831 542.966ZM717.972 526.106H717.292L717.292 526.107L717.972 526.106ZM751.691 526.106L752.371 526.107V526.106H751.691ZM734.831 505.032L734.832 504.352L734.831 504.352L734.831 505.032ZM722.993 516.871L722.313 516.87V516.871H722.993ZM746.681 516.871H747.361L747.361 516.869L746.681 516.871ZM746.681 526.083H746.001V526.094L746.002 526.105L746.681 526.083ZM740.868 536.653L741.214 537.238L740.868 536.653ZM728.806 536.653L728.46 537.238H728.46L728.806 536.653ZM722.993 526.083L723.673 526.105L723.673 526.094V526.083H722.993ZM734.832 542.286C725.901 542.274 718.664 535.037 718.652 526.106L717.292 526.107C717.305 535.788 725.15 543.632 734.83 543.646L734.832 542.286ZM751.011 526.106C751.005 535.039 743.764 542.28 734.831 542.286L734.832 543.646C744.516 543.639 752.364 535.791 752.371 526.107L751.011 526.106ZM751.011 516.894V526.106H752.371V516.894H751.011ZM734.831 500.715C743.767 500.715 751.011 507.958 751.011 516.894H752.371C752.371 507.207 744.518 499.355 734.831 499.355V500.715ZM718.652 516.894C718.652 507.958 725.896 500.715 734.831 500.715V499.355C725.145 499.355 717.292 507.207 717.292 516.894H718.652ZM718.652 526.106V516.894H717.292V526.106H718.652ZM734.831 504.352C727.92 504.359 722.32 509.96 722.313 516.87L723.673 516.871C723.679 510.711 728.672 505.718 734.832 505.712L734.831 504.352ZM747.361 516.869C747.348 509.957 741.744 504.359 734.832 504.352L734.831 505.712C740.993 505.718 745.989 510.709 746.001 516.872L747.361 516.869ZM747.361 526.083V516.871H746.001V526.083H747.361ZM741.214 537.238C745.148 534.912 747.503 530.63 747.361 526.062L746.002 526.105C746.129 530.176 744.029 533.994 740.522 536.068L741.214 537.238ZM728.46 537.238C732.393 539.564 737.281 539.564 741.214 537.238L740.522 536.068C737.016 538.141 732.659 538.141 729.152 536.068L728.46 537.238ZM722.313 526.062C722.171 530.63 724.526 534.912 728.46 537.238L729.152 536.068C725.645 533.994 723.546 530.176 723.673 526.105L722.313 526.062ZM722.313 516.871V526.083H723.673V516.871H722.313Z" fill="#1C1C1C"/>
<rect x="711.281" y="526.556" width="48.1018" height="53.4336" rx="7.06" fill="#F9BF30" stroke="#1C1C1C" stroke-width="1.36"/>
<path d="M741.338 548.125C741.336 545.251 739.3 542.78 736.479 542.229C733.658 541.678 730.841 543.201 729.758 545.863C728.675 548.526 729.628 551.582 732.033 553.157L730.156 564.454H740.52L738.643 553.157C740.33 552.039 741.342 550.149 741.338 548.125Z" fill="#1C1C1C" stroke="#1C1C1C" stroke-width="1.36" stroke-linecap="round"/>
<path d="M734.175 593.025C746.819 593.025 757.068 591.917 757.068 590.549C757.068 589.182 746.819 588.073 734.175 588.073C721.531 588.073 711.281 589.182 711.281 590.549C711.281 591.917 721.531 593.025 734.175 593.025Z" fill="#1C1C1C"/>
<path d="M677.437 235.262H709.992H677.437Z" fill="#F9BF30"/>
<path d="M677.437 235.262H709.992" stroke="#1C1C1C" stroke-linecap="round"/>
<path d="M677.437 254.758H746.981H677.437Z" fill="#F9BF30"/>
<path d="M677.437 254.758H746.981" stroke="#1C1C1C" stroke-linecap="round"/>
<path d="M677.437 274.266H746.981H677.437Z" fill="#F9BF30"/>
<path d="M677.437 274.266H746.981" stroke="#1C1C1C" stroke-linecap="round"/>
<path d="M677.437 293.762H746.981H677.437Z" fill="#F9BF30"/>
<path d="M677.437 293.762H746.981" stroke="#1C1C1C" stroke-linecap="round"/>
<path d="M677.437 313.259H746.981H677.437Z" fill="#F9BF30"/>
<path d="M677.437 313.259H746.981" stroke="#1C1C1C" stroke-linecap="round"/>
<path d="M597.251 332.928C626.813 332.928 650.777 308.964 650.777 279.402C650.777 249.841 626.813 225.876 597.251 225.876C567.69 225.876 543.726 249.841 543.726 279.402C543.726 308.964 567.69 332.928 597.251 332.928Z" fill="#F9BF30" stroke="#1C1C1C"/>
<path d="M581.602 283.467C581.602 283.467 573.541 280.012 573.541 272.193C573.541 264.374 582.984 257.844 587.095 257.499C591.206 257.153 581.602 283.467 581.602 283.467Z" fill="#141414" stroke="#141414" stroke-linecap="round"/>
<path d="M597.309 332.928C605.866 332.932 614.299 330.878 621.896 326.94C619.696 303.413 613.524 258.754 601.501 258.892C585.943 259.065 584.227 266.758 584.227 266.758C584.227 266.758 564.236 310.518 590.146 311.669C588.995 318.521 587.843 325.696 587.003 331.868C590.396 332.553 593.848 332.907 597.309 332.928Z" fill="#F97ACC" stroke="#141414" stroke-linecap="round"/>
<path d="M590.055 311.716C590.055 311.716 600.142 312.671 606.085 308.825C606.085 313.201 597.966 319.892 588.604 320.652L590.055 311.716Z" fill="#141414" stroke="#141414" stroke-linecap="round"/>
<path d="M777.44 513.105H813.52" stroke="white"/>
<path d="M777.44 532.509H849.587" stroke="white"/>
<path d="M777.44 551.925H849.587" stroke="white"/>
<path d="M777.44 571.341H849.587" stroke="white"/>
<path d="M588.603 234.283C588.603 234.283 560.769 235.849 551.361 267.817C548.62 280.75 557.245 282.788 562.151 269.729C567.057 256.67 567.437 243.956 579.206 242.851C590.975 241.745 597.217 233.696 588.603 234.283Z" fill="white"/>
<path d="M552.731 292.219C552.731 292.219 552.535 285.068 557.441 285.068C562.347 285.068 556.854 303.493 552.731 292.219Z" fill="white"/>
<path d="M266.274 694.342C266.274 694.342 290.515 675.778 299.67 696.438C308.825 717.097 250.923 698.522 266.274 694.342Z" fill="#9BADF9"/>
<path d="M343.591 359.311C343.591 359.311 380.707 340.068 389.862 344.858C399.017 349.649 374.442 363.364 364.896 364.539C355.349 365.713 335.219 365.184 343.591 359.311Z" fill="#1C1C1C" stroke="#1C1C1C" stroke-width="1.36"/>
<path d="M407.505 406.238C403.44 396.346 400.388 374.961 396.346 360.67C386.799 377.379 358.551 380.062 348.083 380.465C353.772 393.743 358.056 405.593 357.296 412.122C356.294 420.414 347.139 419.688 338.974 417.305C332.064 415.301 317.808 408.092 317.808 408.092C317.808 408.092 333.826 423.938 342.659 431.676C346.551 440.44 356.317 452.186 377.08 465.936C428.556 500.092 414.702 423.753 407.505 406.238Z" fill="#F98216"/>
<path fill-rule="evenodd" clip-rule="evenodd" d="M407.505 406.238C403.44 396.346 400.388 374.961 396.346 360.67C386.799 377.379 358.551 380.062 348.083 380.465C353.772 393.743 358.056 405.593 357.296 412.122C356.294 420.414 347.139 419.688 338.974 417.305C332.064 415.301 317.808 408.092 317.808 408.092C317.808 408.092 333.826 423.938 342.659 431.676C346.551 440.44 356.317 452.186 377.08 465.936C428.556 500.092 414.702 423.753 407.505 406.238V406.238Z" stroke="#1C1C1C" stroke-width="1.36"/>
<path opacity="0.55" d="M399.604 439.185C404.994 433.414 408.989 426.484 411.281 418.928C410.345 414.616 409.082 410.382 407.504 406.261C403.439 396.369 400.387 374.984 396.345 360.693C390.046 371.713 375.617 376.631 363.525 378.819C371.273 384.615 375.335 394.109 374.177 403.716C372.577 420.218 357.698 436.847 318.222 408.322L317.784 408.115C317.784 408.115 333.803 423.961 342.635 431.699C344.939 436.859 349.28 443.054 356.696 450.125C370.999 454.915 386.649 453.107 399.604 439.185Z" fill="#F44914"/>
<path d="M396.346 360.67C393.236 349.672 389.54 342.878 384.369 348.728C381.496 351.723 378.023 354.078 374.177 355.637C362.926 360.624 347.76 362.305 340.24 362.858C342.923 368.788 345.63 374.754 348.083 380.465C358.55 380.062 386.799 377.356 396.346 360.67Z" fill="white"/>
<path opacity="0.9" d="M384.369 348.728C381.497 351.723 378.024 354.078 374.178 355.637C373.026 356.121 371.874 356.57 370.723 357.007C373.026 359.092 375.893 362.765 374.178 367.153C371.69 373.418 351.814 373.705 348.394 380.454C359.103 380.005 386.891 377.218 396.346 360.67C393.236 349.718 389.54 342.878 384.369 348.728Z" fill="#AFC0F9"/>
<path fill-rule="evenodd" clip-rule="evenodd" d="M396.346 360.67C393.236 349.672 389.54 342.878 384.369 348.728C381.496 351.723 378.023 354.078 374.177 355.637C362.926 360.624 347.76 362.305 340.24 362.858C342.923 368.788 345.63 374.754 348.083 380.465C358.55 380.062 386.799 377.356 396.346 360.67V360.67Z" stroke="#1C1C1C" stroke-width="1.36"/>
<path d="M358.366 318.533C359.414 310.034 355.222 301.259 340.321 310.299C331.722 315.277 327.185 325.127 328.989 334.897L329.07 335.519C329.68 339.63 334.574 350.363 340.229 362.858C347.748 362.305 362.915 360.624 374.166 355.637C368.143 329.277 357.387 326.468 358.366 318.533Z" fill="#F4A187"/>
<path opacity="0.45" d="M358.539 321.389C356.633 320.203 354.364 319.745 352.148 320.099C340.321 322.195 332.893 330.279 338.962 332.375C338.962 332.375 349.649 331.661 356.236 336.797C358.631 334.091 363.617 333.342 366.75 342.716C369.882 352.09 358.435 356.777 351.411 356.086C345.445 355.499 339.227 358.482 340.747 362.811C348.416 362.236 363.18 360.508 374.143 355.637C368.938 332.651 360.082 327.573 358.539 321.389Z" fill="#F4A187"/>
<path fill-rule="evenodd" clip-rule="evenodd" d="M358.366 318.533C359.414 310.034 355.222 301.259 340.321 310.299C331.722 315.277 327.185 325.127 328.989 334.897L329.07 335.519C329.68 339.63 334.574 350.363 340.229 362.858C347.748 362.305 362.915 360.624 374.166 355.637C368.143 329.277 357.387 326.468 358.366 318.533V318.533Z" stroke="#1C1C1C" stroke-width="1.36"/>
<path d="M293.394 341.599L499.666 299.843L476.392 242.851L293.394 331.73L293.394 341.599Z" fill="#FCE1A7"/>
<path opacity="0.64" d="M475.241 270.258L466.477 247.653L464.07 248.804C462.251 252.973 460.328 261.725 465.786 276.051C473.847 297.229 416.613 291.252 417.005 302.537C417.397 313.823 400.146 293.693 393.674 296.423C387.202 299.152 395.885 316.38 376.02 317.485C356.155 318.591 343.971 331.108 340.194 326.606C336.417 322.103 332.582 318.141 330.774 321.999C328.966 325.857 310.264 334.966 297.01 335.058C295.708 335.007 294.425 335.374 293.348 336.106V341.657L488.185 302.157L475.241 270.258Z" fill="#F9BF30"/>
<path fill-rule="evenodd" clip-rule="evenodd" d="M293.394 341.599L499.666 299.843L476.393 242.851L293.394 331.73L293.394 341.599Z" stroke="#1C1C1C" stroke-width="1.36"/>
<path d="M350.524 302.572L359.575 328.126L350.524 302.572Z" fill="white"/>
<path d="M350.524 302.572L359.575 328.126" stroke="#1C1C1C" stroke-width="1.36" stroke-linecap="round"/>
<path d="M310.645 323.174L315.585 337.108L310.645 323.174Z" fill="white"/>
<path d="M310.645 323.174L315.585 337.108" stroke="#1C1C1C" stroke-width="1.36" stroke-linecap="round"/>
<path d="M288.684 320.56C288.684 320.56 326.525 365.472 286.127 373.694C290.642 389.575 304.76 407.021 290.837 409.773C276.915 412.526 250.244 410.752 252.409 373.694C254.574 336.636 267.449 294.442 288.684 320.56Z" fill="#F4A187" stroke="#1C1C1C" stroke-width="1.36"/>
<path d="M379.659 359.023C379.659 359.023 439.311 335.911 436.432 348.728C433.553 361.545 383.252 365.656 379.659 359.023Z" fill="#1C1C1C" stroke="#1C1C1C" stroke-width="1.36"/>
<path d="M271.755 340.943C271.755 340.943 265.283 325.062 274.508 325.258C283.732 325.454 303.297 326.41 300.384 302.906C297.47 279.402 238.014 287.809 230.586 359.748C229.607 378.796 289.213 387.029 271.755 340.943Z" fill="#C9116D"/>
<path d="M300.384 302.906C299.29 294.096 290.261 289.766 279.022 291.574C283.006 295.029 289.248 302.515 286.07 313.696C281.567 329.577 263.418 316.195 265.629 330.141C267.84 344.087 265.882 368.04 245.488 361.556C237.588 359.046 233.028 358.401 230.667 358.988C230.667 359.253 230.609 359.495 230.586 359.748C229.607 378.796 289.213 387.029 271.755 340.943C271.755 340.943 265.283 325.063 274.508 325.258C283.732 325.454 303.332 326.444 300.384 302.906Z" fill="#A3085D"/>
<path fill-rule="evenodd" clip-rule="evenodd" d="M271.755 340.943C271.755 340.943 265.283 325.062 274.508 325.258C283.732 325.454 303.297 326.41 300.384 302.906C297.47 279.402 238.014 287.809 230.586 359.748C229.607 378.796 289.213 387.029 271.755 340.943Z" stroke="#1C1C1C" stroke-width="1.36"/>
<path d="M347.253 480.573C347.253 480.573 356.132 511.078 388.549 516.825C420.966 522.571 349.338 559.18 323.98 544.014C298.622 528.847 300.453 448.754 347.253 480.573Z" fill="#F98216" stroke="#1C1C1C" stroke-width="1.36"/>
<path d="M347.253 480.573C347.253 480.573 356.132 511.078 388.549 516.825C420.966 522.571 349.338 559.18 323.98 544.014C298.622 528.847 300.453 448.754 347.253 480.573Z" fill="#F98216" stroke="#1C1C1C" stroke-width="1.36"/>
<path d="M238.014 392.603C238.014 392.603 248.378 364.539 294.891 393.996C288.603 399.858 235.78 401.148 238.014 392.603Z" fill="#F98216" stroke="#1C1C1C" stroke-width="1.36"/>
<path d="M415.105 359.668C408.437 339.619 401.815 323.865 403.324 317.877C407.769 300.211 402.172 303.367 398.879 304.415C397.244 293.405 389.896 295.628 390.645 300.211C381.363 291.701 378.093 296.837 379.406 301.271C371.69 298.403 367.245 301.927 367.383 305.198C376.527 307.294 381.202 316.172 379.406 321.93C377.609 327.688 363.848 319.973 359.667 324.233C355.487 328.494 372.081 325.938 379.406 357.825C379.486 358.217 379.555 358.585 379.624 358.977C385.774 360.577 400.215 363.341 415.105 359.668Z" fill="#F4A187"/>
<path opacity="0.45" d="M397.244 354.566C389.782 353.219 383.598 356.65 380.224 359.172C386.649 360.75 400.653 363.249 415.105 359.679C408.437 339.63 401.816 323.876 403.324 317.888C406.606 304.852 404.407 303.159 401.712 303.585C401.712 303.781 401.781 303.977 401.85 304.196C403.889 310.76 400.192 317.036 397.244 322.333C394.296 327.631 408.622 356.627 397.244 354.566Z" fill="#FA8075"/>
<path fill-rule="evenodd" clip-rule="evenodd" d="M415.105 359.668C408.437 339.619 401.815 323.865 403.324 317.877C407.769 300.211 402.172 303.367 398.879 304.415C397.244 293.405 389.896 295.628 390.645 300.211C381.363 291.701 378.093 296.837 379.406 301.271C371.69 298.403 367.245 301.927 367.383 305.198C376.527 307.294 381.202 316.172 379.406 321.93C377.609 327.688 363.848 319.973 359.667 324.233C355.487 328.494 372.081 325.938 379.406 357.825C379.486 358.217 379.555 358.585 379.624 358.977C385.774 360.577 400.215 363.341 415.105 359.668V359.668Z" stroke="#1C1C1C" stroke-width="1.36"/>
<path opacity="0.55" d="M343.085 489.544C343.085 489.544 350.685 516.191 364.378 515.639C378.07 515.086 384.933 512.863 386.626 519.681C388.319 526.498 368.5 547.607 344.651 530.103C320.802 512.598 325.995 479.571 343.085 489.544Z" fill="#F44914"/>
<path d="M547.641 499.021C470.116 444.632 362.155 527.811 362.155 527.811C362.155 527.811 329.208 531.473 335.749 550.025C342.29 568.577 460.972 532.751 460.972 532.751C469.034 524.575 512.517 507.244 548.435 499.574L547.641 499.021Z" fill="#2E45CC"/>
<path opacity="0.44" d="M542.033 495.371C541.008 494.749 539.972 494.138 538.935 493.563C538.452 493.286 537.979 493.021 537.496 492.768C536.344 492.158 535.193 491.616 534.041 491.006L533.051 490.511C531.577 489.82 530.103 489.164 528.617 488.542L527.465 488.104C526.314 487.643 525.162 487.206 524.011 486.803L522.502 486.273C521.431 485.905 520.349 485.559 519.266 485.225L517.896 484.811C516.387 484.384 514.879 483.97 513.37 483.659L512.967 483.567C511.574 483.233 510.18 482.945 508.787 482.669L507.301 482.404C506.23 482.208 505.159 482.035 504.077 481.874L502.545 481.655C501.324 481.494 500.104 481.344 498.883 481.229C498.561 481.229 498.238 481.149 497.916 481.125C496.396 480.976 494.864 480.872 493.309 480.792H492.043C490.891 480.734 489.74 480.699 488.588 480.688H487.033C485.882 480.688 484.822 480.688 483.705 480.688H482.369C480.838 480.745 479.318 480.815 477.763 480.918H477.153C475.817 481.01 474.493 481.125 473.157 481.264L471.717 481.413L468.458 481.805L467.03 482.001C465.74 482.185 464.462 482.381 463.184 482.588L462.504 482.703C460.996 482.956 459.487 483.244 457.99 483.532L456.839 483.774C455.687 484.004 454.536 484.246 453.465 484.511L452.094 484.822C450.943 485.087 449.791 485.363 448.697 485.651L447.649 485.916C446.175 486.308 444.701 486.711 443.238 487.125L442.812 487.252C441.5 487.632 440.198 488.023 438.897 488.403L437.745 488.76C436.594 489.106 435.546 489.463 434.452 489.831L433.404 490.177C430.548 491.152 427.742 492.169 424.986 493.229L424.295 493.505C423.143 493.954 421.992 494.403 420.84 494.864L419.976 495.221C418.767 495.716 417.57 496.211 416.383 496.718L416.038 496.868C413.328 498.027 410.698 499.213 408.15 500.426L407.62 500.668C406.468 501.209 405.317 501.762 404.223 502.303L403.9 502.464C401.367 503.708 398.925 504.952 396.576 506.196C396.726 506.196 476.899 474.654 526.279 505.125C533.649 502.994 541.066 501.094 548.159 499.574L547.365 498.998C545.937 497.996 544.509 497.063 543.069 496.154L542.033 495.371Z" fill="#0E1DAA"/>
<path d="M292.219 644.674C292.219 644.674 263.706 669.859 266.251 660.37C268.854 650.685 282.155 622.448 282.155 622.448L292.219 644.674Z" fill="#1C1C1C" stroke="#1C1C1C" stroke-width="1.36" stroke-linecap="round"/>
<path d="M548.435 499.597L547.641 499.021C470.116 444.632 362.155 527.811 362.155 527.811C362.155 527.811 329.208 531.473 335.749 550.025C342.29 568.577 460.972 532.751 460.972 532.751" stroke="#1C1C1C" stroke-width="1.36"/>
<path d="M526.855 562.312C488.426 504.675 342.152 538.394 342.152 538.394C298.645 534.939 249.599 572.124 269.602 646.24C394.307 676.435 439.403 630.555 448.42 606.625C448.42 606.625 433.127 655.648 392.741 678.024C393.651 691.958 410.245 709.485 430.743 722.682C447.499 733.484 466.846 741.384 482.3 742.029C493.363 724.199 503.271 705.678 511.965 686.58C532.97 639.998 545.407 590.146 526.855 562.312Z" fill="#2E45CC"/>
<path opacity="0.44" d="M360.577 635.311C319.017 637.361 324.498 605.992 310.909 619.316C297.321 632.64 291.102 613.777 309.447 593.739C294.856 599.382 272.988 615.32 266.274 630.406C267.082 635.746 268.193 641.037 269.602 646.251C394.307 676.446 439.403 630.567 448.42 606.637C455.79 589.156 458.623 567.817 458.623 567.817C458.451 568.945 445.023 632.202 360.577 635.311Z" fill="#0E1DAA"/>
<path opacity="0.44" d="M526.855 562.312C497.201 517.85 403.393 527.765 362.051 534.605C392.764 534.018 457.829 534.882 470.911 552.121C488.161 574.865 499.424 595.524 493.666 618.038C487.908 640.551 508.637 637.902 508.982 653.069C509.328 668.235 505.182 717.074 460.973 711.857C420.114 707.021 397.232 678.461 393.328 677.655L392.741 678.001C393.651 691.935 410.245 709.462 430.743 722.659C447.499 733.461 466.846 741.361 482.3 742.006C493.363 724.176 503.271 705.655 511.965 686.557C532.97 639.998 545.407 590.146 526.855 562.312Z" fill="#0E1DAA"/>
<path fill-rule="evenodd" clip-rule="evenodd" d="M526.855 562.312C488.426 504.675 342.152 538.394 342.152 538.394C298.645 534.939 249.599 572.124 269.602 646.24C394.307 676.435 439.403 630.555 448.42 606.625C448.42 606.625 433.127 655.648 392.741 678.024C393.651 691.958 410.245 709.485 430.743 722.682C447.499 733.484 466.846 741.384 482.3 742.029C493.363 724.199 503.271 705.678 511.965 686.58C532.97 639.998 545.407 590.146 526.855 562.312Z" stroke="#1C1C1C" stroke-width="1.36"/>
<path d="M326.468 461.537C326.468 461.537 337.062 511.735 362.167 527.811C347.392 536.701 333.538 554.862 333.538 554.862C333.538 554.862 277.111 513.462 283.341 488.484C289.571 463.506 315.482 444.275 326.468 461.537Z" fill="white" stroke="#1C1C1C" stroke-width="1.36"/>
<path d="M364.999 498.998H364.907C377.16 497.846 389.54 494.472 400.123 488.461C389.025 493.755 377.178 497.308 364.999 498.998Z" fill="white" stroke="#1C1C1C" stroke-width="1.36"/>
<path d="M364.907 499.021C363.065 499.194 361.222 499.309 359.391 499.378C361.237 499.486 363.09 499.366 364.907 499.021Z" fill="white" stroke="#1C1C1C" stroke-width="1.36"/>
<path d="M338.628 359.311C333.676 348.359 329.634 339.239 329.082 335.519C327.515 324.936 331.557 318.66 333.688 321.7C335.818 324.74 337.281 333.089 337.281 333.089C337.281 333.089 355.418 328.943 362.478 344.893" fill="#F4A187"/>
<path d="M338.628 359.311C333.676 348.359 329.634 339.239 329.082 335.519C327.515 324.936 331.557 318.66 333.688 321.7C335.818 324.74 337.281 333.089 337.281 333.089C337.281 333.089 355.418 328.943 362.478 344.893" stroke="#1C1C1C" stroke-width="1.36" stroke-linecap="round"/>
<path d="M325.535 316.126C325.535 316.126 328.989 303.597 348.048 301.052C362.95 300.165 362.8 319.04 354.854 313.719C352.942 316.506 351.284 317.301 348.831 315.585C348.489 316.651 347.623 317.467 346.538 317.745C345.453 318.024 344.301 317.725 343.488 316.955C341.726 315.09 343.027 323.784 337.292 320.41C331.557 317.036 329.093 314.733 325.535 316.126Z" fill="#F4A187"/>
<path opacity="0.45" d="M348.037 301.052L347.403 301.144C351.27 301.928 354.575 304.417 356.397 307.915C360.704 316.172 340.621 307.915 339.285 321.159C342.739 321.539 341.956 315.32 343.476 316.932C344.29 317.702 345.442 318.001 346.526 317.722C347.611 317.444 348.477 316.628 348.82 315.562C351.273 317.278 352.931 316.483 354.843 313.696C362.789 319.04 362.938 300.2 348.037 301.052Z" fill="#F6927F"/>
<path fill-rule="evenodd" clip-rule="evenodd" d="M325.535 316.126C325.535 316.126 328.989 303.597 348.048 301.052C362.95 300.165 362.8 319.04 354.854 313.719C352.942 316.506 351.284 317.301 348.831 315.585C348.489 316.651 347.623 317.467 346.538 317.745C345.453 318.024 344.301 317.725 343.488 316.955C341.726 315.09 343.027 323.784 337.292 320.41C331.557 317.036 329.093 314.733 325.535 316.126H325.535Z" stroke="#1C1C1C" stroke-width="1.36" stroke-linecap="round"/>
<path d="M354.843 313.696C354.843 313.696 353.91 305.75 349.453 304.184" stroke="#1C1C1C" stroke-width="1.36" stroke-linecap="round"/>
<path d="M348.82 315.562C348.215 311.732 345.783 308.437 342.302 306.729" stroke="#1C1C1C" stroke-width="1.36" stroke-linecap="round"/>
<path d="M342.809 316.748C342.809 316.748 339.158 309.493 333.826 310.161" stroke="#1C1C1C" stroke-width="1.36" stroke-linecap="round"/>
<path d="M379.406 301.271C384.737 305.787 387.966 312.304 388.331 319.282" stroke="#1C1C1C" stroke-width="1.36" stroke-linecap="round"/>
<path d="M390.646 300.2C390.646 300.2 395.586 306.234 394.595 317.474" stroke="#1C1C1C" stroke-width="1.36" stroke-linecap="round"/>
<path d="M398.879 304.415C399.067 307.179 399.067 309.953 398.879 312.718V304.415Z" fill="white"/>
<path d="M398.879 304.415C399.067 307.179 399.067 309.953 398.879 312.718" stroke="#1C1C1C" stroke-width="1.36" stroke-linecap="round"/>
<path d="M672.588 632.317C665.276 635.07 647.748 656.109 633.515 677.344C624.44 690.898 622.379 698.994 622.425 703.6C647.691 689.137 677.114 640.344 672.588 632.317Z" fill="#1C1C1C" stroke="#1C1C1C" stroke-width="1.36"/>
<path d="M598.461 643.085C598.461 643.085 525.531 697.797 532.003 677.632C538.475 657.468 580.035 606.948 591.263 615.735C602.491 624.521 598.461 643.085 598.461 643.085Z" fill="#1C1C1C" stroke="#1C1C1C" stroke-width="1.36" stroke-linecap="round"/>
<path d="M463.276 529.688C471.337 521.512 512.518 507.266 548.436 499.597C595.766 533.166 608.168 574.185 614.41 605.681C593.781 613.333 575.003 625.26 559.307 640.678C548.179 651.664 538.935 664.405 531.945 678.392C531.818 673.429 516.088 597.401 463.276 529.688Z" fill="#2E45CC"/>
<path opacity="0.44" d="M548.436 499.597C541.146 501.152 533.649 502.983 526.245 504.975C531.002 507.862 535.398 511.306 539.338 515.235C586.07 561.921 541.975 578.792 559.318 594.868C576.661 610.944 522.928 632.49 531.956 677.598C531.956 677.793 532.037 677.966 532.072 678.15C537.417 667.501 544.08 657.566 551.902 648.578L552.213 648.244C553.334 646.962 554.455 645.722 555.576 644.524C556.808 643.2 558.063 641.921 559.318 640.678C575.011 625.261 593.786 613.335 614.41 605.681C608.168 574.185 595.766 533.166 548.436 499.597V499.597Z" fill="#0E1DAA"/>
<path d="M548.067 499.321C595.398 532.901 608.169 574.174 614.41 605.681C593.782 613.333 575.003 625.26 559.307 640.678C548.18 651.664 538.936 664.405 531.945 678.392C531.807 673.429 517.067 598.53 464.255 530.816" stroke="#1C1C1C" stroke-width="1.36" stroke-linecap="round"/>
<path d="M464.266 530.816C464.266 530.816 454.305 519.381 446.992 513.105C448.271 514.257 452.117 526.924 446.175 529.054C452.428 529.492 463.057 530.206 464.266 530.816Z" fill="#1C1C1C" stroke="#1C1C1C" stroke-width="1.36" stroke-linecap="round"/>
<path d="M478.25 233.755L504.159 305.563C493.294 309.483 481.309 303.853 477.389 292.989L465.664 260.492C461.767 249.634 467.398 237.67 478.25 233.755V233.755Z" fill="#FCE1A7"/>
<path opacity="0.85" d="M477.21 262.128C483.348 283.674 480.055 289.271 475.517 287.763L477.383 292.945C479.265 298.163 483.144 302.421 488.165 304.779C493.186 307.137 498.939 307.404 504.157 305.52L478.442 234.283C475.967 238.659 473.065 247.549 477.21 262.128Z" fill="#F9BF30"/>
<path fill-rule="evenodd" clip-rule="evenodd" d="M478.25 233.755L504.159 305.563C493.294 309.483 481.309 303.853 477.389 292.989L465.664 260.492C461.767 249.634 467.398 237.67 478.25 233.755V233.755Z" stroke="#1C1C1C" stroke-width="1.36"/>
<path d="M222.133 271.272C229.613 271.272 235.676 265.209 235.676 257.729C235.676 250.25 229.613 244.187 222.133 244.187C214.654 244.187 208.591 250.25 208.591 257.729C208.591 265.209 214.654 271.272 222.133 271.272Z" fill="#C9116D"/>
<path d="M222.133 244.187C218.182 244.187 214.429 245.917 211.861 248.92C216.076 247.215 222.778 245.465 226.763 249.484C232.797 255.541 212.011 258.547 216.836 270.212C221.89 272.351 227.735 271.229 231.637 267.37C235.539 263.511 236.727 257.679 234.644 252.602C232.562 247.525 227.621 244.206 222.133 244.198V244.187Z" fill="#A3085D"/>
<path fill-rule="evenodd" clip-rule="evenodd" d="M222.133 271.272C229.613 271.272 235.676 265.209 235.676 257.729C235.676 250.25 229.613 244.187 222.133 244.187C214.654 244.187 208.591 250.25 208.591 257.729C208.591 265.209 214.654 271.272 222.133 271.272Z" stroke="#1C1C1C" stroke-width="1.36" stroke-linecap="round"/>
<path d="M239.592 302.353C252.757 302.353 263.43 291.681 263.43 278.515C263.43 265.35 252.757 254.678 239.592 254.678C226.426 254.678 215.754 265.35 215.754 278.515C215.754 291.681 226.426 302.353 239.592 302.353Z" fill="#C9116D"/>
<path d="M239.592 254.678C236.748 254.682 233.928 255.197 231.266 256.198C239.753 255.703 251.707 257.649 256.071 271.272C263.13 293.302 238.141 280.162 237.991 290.365C237.841 300.568 221.869 291.068 222.675 295.317C230.286 302.977 242.094 304.564 251.458 299.186C260.821 293.808 265.4 282.808 262.618 272.375C259.837 261.941 250.39 254.681 239.592 254.678V254.678Z" fill="#A3085D"/>
<path fill-rule="evenodd" clip-rule="evenodd" d="M239.592 302.353C252.757 302.353 263.43 291.681 263.43 278.515C263.43 265.35 252.757 254.678 239.592 254.678C226.426 254.678 215.754 265.35 215.754 278.515C215.754 291.681 226.426 302.353 239.592 302.353Z" stroke="#1C1C1C" stroke-width="1.36" stroke-linecap="round"/>
<path d="M598.311 281.417C598.311 281.417 601.685 270.028 595.34 270.788C588.995 271.548 575.544 273.575 575.959 257.142C576.373 240.709 620.18 239.972 628.01 291.563C629.991 304.633 589.432 314.41 598.311 281.417Z" fill="#C9116D" stroke="#1C1C1C" stroke-width="1.36"/>
<path d="M625.476 232.072C629.833 232.072 633.365 228.54 633.365 224.184C633.365 219.827 629.833 216.295 625.476 216.295C621.12 216.295 617.588 219.827 617.588 224.184C617.588 228.54 621.12 232.072 625.476 232.072Z" fill="#C9116D" stroke="#1C1C1C" stroke-width="1.36" stroke-linecap="round"/>
<path d="M616.552 251.131C624.222 251.131 630.44 244.913 630.44 237.243C630.44 229.572 624.222 223.354 616.552 223.354C608.882 223.354 602.664 229.572 602.664 237.243C602.664 244.913 608.882 251.131 616.552 251.131Z" fill="#C9116D" stroke="#1C1C1C" stroke-width="1.36" stroke-linecap="round"/>
<path d="M466.028 841.918C446.451 816.433 451.518 812.898 442.098 793.689C423.673 791.202 411.19 769.851 411.19 769.851C406.065 781.045 401.274 790.58 397.371 797.605C415.877 827.408 465.291 859.571 466.028 841.918Z" fill="#F9BF30"/>
<path opacity="0.43" d="M466.028 841.918C446.451 816.433 451.518 812.898 442.098 793.689C439.512 793.323 436.986 792.61 434.59 791.57C434.117 794.131 434.41 796.775 435.43 799.171C444.459 819.565 446.025 838.002 433.473 828.191C420.92 818.379 397.394 797.605 397.394 797.605C415.877 827.408 465.291 859.571 466.028 841.918Z" fill="#F98216"/>
<path fill-rule="evenodd" clip-rule="evenodd" d="M466.028 841.918C446.451 816.433 451.518 812.898 442.098 793.689C423.673 791.202 411.19 769.851 411.19 769.851C406.065 781.045 401.274 790.58 397.371 797.605C415.877 827.408 465.291 859.571 466.028 841.918V841.918Z" stroke="#1C1C1C" stroke-width="1.36"/>
<path d="M459.729 774.745C467.804 764.231 475.327 753.303 482.265 742.006C466.811 741.361 447.464 733.461 430.709 722.659C427.07 732.494 423.247 742.086 419.446 751.115C424.801 757.449 439.887 773.018 459.729 774.745Z" fill="#F4A187"/>
<path opacity="0.72" d="M459.729 746.624C470.75 747.407 457.426 758.358 446.267 771.383C450.559 773.177 455.098 774.311 459.729 774.745C467.804 764.231 475.327 753.303 482.266 742.006C466.811 741.361 447.465 733.461 430.709 722.659C430.709 722.659 440.947 745.299 459.729 746.624Z" fill="#F98B62"/>
<path fill-rule="evenodd" clip-rule="evenodd" d="M459.729 774.745C467.804 764.231 475.327 753.303 482.265 742.006C466.811 741.361 447.464 733.461 430.709 722.659C427.07 732.494 423.247 742.086 419.446 751.115C424.801 757.449 439.887 773.018 459.729 774.745Z" stroke="#1C1C1C" stroke-width="1.36"/>
<path d="M411.235 769.851C411.235 769.851 423.719 791.202 442.144 793.689C446.647 790.303 452.762 783.693 459.729 774.746C439.887 773.018 424.801 757.472 419.423 751.115C416.648 757.702 413.884 764.013 411.212 769.851H411.235Z" fill="white"/>
<path opacity="0.71" d="M446.267 771.383C440.682 777.924 435.684 784.995 434.636 791.57C437.032 792.61 439.558 793.323 442.144 793.689C446.647 790.303 452.762 783.693 459.729 774.745C455.097 774.311 450.559 773.177 446.267 771.383Z" fill="#AFC0F9"/>
<path fill-rule="evenodd" clip-rule="evenodd" d="M411.235 769.851C411.235 769.851 423.719 791.202 442.144 793.689C446.647 790.303 452.762 783.693 459.729 774.746C439.887 773.018 424.801 757.472 419.423 751.115C416.648 757.702 413.884 764.013 411.212 769.851H411.235Z" stroke="#1C1C1C" stroke-width="1.36"/>
<path d="M621.953 703.888L622.425 703.6C622.425 698.994 624.44 690.933 633.515 677.344C647.749 656.109 665.276 635.07 672.588 632.317C672.471 632.099 672.319 631.9 672.139 631.73C665.483 625.845 634.137 655.061 627.043 650.743C626.684 650.354 626.346 649.946 626.03 649.522C620.698 654.842 607.259 669.732 603.931 687.352C612.28 695.747 618.706 701.677 621.953 703.888Z" fill="#F9BF30"/>
<path opacity="0.43" d="M672.162 631.73C665.506 625.845 634.16 655.061 627.066 650.743C626.707 650.354 626.369 649.946 626.053 649.522C622.676 652.914 619.551 656.547 616.702 660.393C616.702 660.393 636.279 663.756 640.989 653.483C644.443 645.894 655.211 641.806 659.253 643.833C664.815 637.718 669.617 633.469 672.611 632.317C672.494 632.099 672.342 631.9 672.162 631.73Z" fill="#F98216"/>
<path fill-rule="evenodd" clip-rule="evenodd" d="M621.953 703.888L622.425 703.6C622.425 698.994 624.44 690.933 633.515 677.344C647.749 656.109 665.276 635.07 672.588 632.317C672.471 632.099 672.319 631.9 672.139 631.73C665.483 625.845 634.137 655.061 627.043 650.743C626.684 650.354 626.346 649.946 626.03 649.522C620.698 654.842 607.259 669.732 603.931 687.352C612.28 695.747 618.706 701.677 621.953 703.888V703.888Z" stroke="#1C1C1C" stroke-width="1.36"/>
<path d="M619.304 631.742C617.692 624.314 616.345 615.458 614.41 605.681C593.781 613.333 575.003 625.26 559.307 640.678C568.957 651.042 578.285 660.946 586.714 669.744C596.042 651.434 612.475 637.154 619.304 631.742Z" fill="#F4A187"/>
<path opacity="0.72" d="M606.372 625.65C608.928 629.104 609.666 634.31 610.138 639.699C613.823 636.244 617.047 633.503 619.35 631.742C617.738 624.314 616.391 615.458 614.456 605.681C593.811 613.328 575.017 625.254 559.307 640.678C559.307 640.678 598.668 615.205 606.372 625.65Z" fill="#FC8354"/>
<path fill-rule="evenodd" clip-rule="evenodd" d="M619.304 631.742C617.692 624.314 616.345 615.458 614.41 605.681C593.781 613.333 575.003 625.26 559.307 640.678C568.957 651.042 578.285 660.946 586.714 669.744C596.042 651.434 612.475 637.154 619.304 631.742V631.742Z" stroke="#1C1C1C" stroke-width="1.36"/>
<path d="M626.03 649.522C622.886 645.457 620.951 639.342 619.304 631.741C612.476 637.154 596.042 651.376 586.726 669.744C593.037 676.331 598.852 682.296 603.931 687.352C607.259 669.732 620.698 654.888 626.03 649.522Z" fill="white"/>
<path opacity="0.71" d="M619.304 631.741C617.07 633.503 613.823 636.221 610.092 639.699C610.84 648.359 610.909 657.445 616.633 660.427C619.482 656.582 622.607 652.948 625.984 649.556C622.886 645.457 620.951 639.342 619.304 631.741Z" fill="#AFC0F9"/>
<path fill-rule="evenodd" clip-rule="evenodd" d="M626.03 649.522C622.886 645.457 620.951 639.342 619.304 631.741C612.476 637.154 596.042 651.376 586.726 669.744C593.037 676.331 598.852 682.296 603.931 687.352C607.259 669.732 620.698 654.888 626.03 649.522V649.522Z" stroke="#1C1C1C" stroke-width="1.36"/>
<path d="M382.515 377.771C386.949 420.241 372.565 438.701 345.284 426.771C338.018 423.592 329.83 418.26 320.848 410.648C273.264 370.343 202.154 370.965 193.793 489.647C185.432 608.33 265.652 661.66 265.652 661.66C290.434 609.631 328.183 569.901 349.891 554.735C318.798 521.535 311.98 487.286 319.293 491.996C329.473 497.248 344.11 500.058 359.414 499.378C361.245 499.309 363.088 499.194 364.93 499.021H365.022C377.2 497.339 389.047 493.793 400.146 488.507C452.819 462.573 449.457 402.691 442.064 368.811C421.335 391.175 382.515 377.771 382.515 377.771Z" fill="#FED330"/>
<path opacity="0.43" d="M442.063 368.811C436.934 374.235 430.355 378.072 423.108 379.867C435.35 389.413 407.182 415.566 414.69 443.883C422.314 472.673 367.475 496.856 315.585 471.337C281.866 454.766 267.805 450.781 267.679 458.796V458.877C267.789 460.865 268.261 462.816 269.072 464.635C272.239 475.483 282.039 500.23 310.402 528.594C326.916 545.119 268.842 557.741 279.16 587.221C288.81 614.767 254.067 632.548 264.408 660.784C265.203 661.372 265.64 661.66 265.64 661.66C290.422 609.631 328.171 569.901 349.879 554.735C335.565 539.465 326.41 523.988 321.4 512.126C319.549 507.916 318.115 503.534 317.116 499.044V498.848C317.024 498.376 316.944 497.927 316.886 497.501C316.879 497.401 316.879 497.301 316.886 497.202C316.832 496.795 316.786 496.411 316.748 496.05C316.753 495.97 316.753 495.889 316.748 495.808C316.748 495.394 316.748 495.002 316.748 494.657C316.748 494.576 316.748 494.507 316.748 494.426C316.748 494.346 316.748 493.931 316.748 493.701C316.76 493.581 316.78 493.462 316.805 493.344C316.824 493.2 316.851 493.058 316.886 492.918L316.99 492.584C317.025 492.485 317.067 492.389 317.116 492.296C317.159 492.204 317.209 492.115 317.266 492.031C317.715 491.409 318.418 491.34 319.373 491.962C329.553 497.213 344.19 500.023 359.495 499.344C361.326 499.275 363.168 499.159 365.011 498.987H365.103C377.281 497.304 389.127 493.758 400.226 488.473C452.819 462.573 449.457 402.691 442.063 368.811V368.811Z" fill="#F98216"/>
<path fill-rule="evenodd" clip-rule="evenodd" d="M382.515 377.771C386.949 420.241 372.565 438.701 345.284 426.771C338.018 423.592 329.83 418.26 320.848 410.648C273.264 370.343 202.154 370.965 193.793 489.647C185.432 608.33 265.652 661.66 265.652 661.66C290.434 609.631 328.183 569.901 349.891 554.735C318.798 521.535 311.98 487.286 319.293 491.996C329.473 497.248 344.11 500.058 359.414 499.378C361.245 499.309 363.088 499.194 364.93 499.021H365.022C377.2 497.339 389.047 493.793 400.146 488.507C452.819 462.573 449.457 402.691 442.064 368.811C421.335 391.175 382.515 377.771 382.515 377.771V377.771Z" stroke="#1C1C1C" stroke-width="1.36"/>
<path d="M415.105 359.668C400.215 363.341 385.774 360.577 379.625 359.023C380.96 365.702 381.928 371.955 382.515 377.759C383.102 383.563 421.335 391.129 442.064 368.8C440.613 361.989 438.721 355.28 436.398 348.716C430.297 354.045 422.988 357.805 415.105 359.668Z" fill="white"/>
<path opacity="0.71" d="M442.064 368.811C440.613 362.001 438.721 355.292 436.398 348.728C430.296 354.053 422.987 357.808 415.105 359.668C415.105 359.668 410.499 365.264 414.759 371.345C419.02 377.425 382.216 374.431 382.515 377.771C382.515 377.771 421.335 391.175 442.064 368.811Z" fill="#AFC0F9"/>
<path fill-rule="evenodd" clip-rule="evenodd" d="M415.105 359.668C400.215 363.341 385.774 360.578 379.625 359.023C380.96 365.702 381.928 371.955 382.515 377.759C383.102 383.563 421.335 391.129 442.064 368.8C440.613 361.989 438.721 355.28 436.398 348.716C430.297 354.045 422.988 357.805 415.105 359.668V359.668Z" stroke="#1C1C1C" stroke-width="1.36"/>
<path d="M442.328 258.72L459.763 307.915L442.328 258.72Z" fill="white"/>
<path d="M442.328 258.72L459.763 307.915" stroke="#1C1C1C" stroke-width="1.36" stroke-linecap="round"/>
<path d="M401.85 278.515L415.45 316.886L401.85 278.515Z" fill="white"/>
<path d="M401.85 278.515L415.45 316.886" stroke="#1C1C1C" stroke-width="1.36" stroke-linecap="round"/>
<path d="M504.649 305.682C508.433 304.327 505.741 287.143 498.636 267.299C491.531 247.455 482.704 232.468 478.919 233.822C475.135 235.177 477.827 252.362 484.932 272.206C492.037 292.049 500.865 307.037 504.649 305.682Z" fill="white" stroke="#1C1C1C" stroke-width="1.36" stroke-linecap="round"/>
<path d="M286.069 373.694L276.074 374.938L286.069 373.694Z" fill="white"/>
<path d="M286.069 373.694L276.074 374.938" stroke="#1C1C1C" stroke-width="1.36" stroke-linecap="round"/>
<path d="M286.069 373.694L276.074 374.938C277.836 375.848 283.732 383.598 289.536 382.999C288.476 380.27 286.069 373.694 286.069 373.694V373.694Z" fill="#1C1C1C" stroke="#1C1C1C" stroke-width="1.36"/>
<path d="M458.623 567.805C458.623 567.805 455.79 589.144 448.42 606.625" stroke="#1C1C1C" stroke-width="1.36" stroke-linecap="round"/>
<path d="M291.275 330.682C291.275 330.682 295.133 337.822 299.094 339.78C299.601 340.217 306.222 344.064 294.165 346.574" stroke="#1C1C1C" stroke-width="1.36" stroke-linecap="round"/>
<path d="M278.676 339.146C282.304 332.536 288.315 335.945 288.315 335.945" stroke="#1C1C1C" stroke-width="1.36" stroke-linecap="round"/>
<path d="M294.937 360.105C297.156 360.105 298.956 358.306 298.956 356.086C298.956 353.867 297.156 352.067 294.937 352.067C292.717 352.067 290.917 353.867 290.917 356.086C290.917 358.306 292.717 360.105 294.937 360.105Z" fill="white" stroke="#1C1C1C" stroke-width="1.36" stroke-linecap="round"/>
<path d="M268.819 454.927C268.819 454.927 298.035 481.333 322.494 493.505" stroke="#1C1C1C" stroke-width="1.36" stroke-linecap="round"/>
<path d="M485.386 255.161C485.386 255.161 479.202 245.661 481.068 242.321C482.934 238.981 491.363 255.127 494.496 270.259C497.628 285.39 489.797 262.128 485.386 255.161Z" fill="#AFC0F9"/>
<path d="M499.666 285.955C499.666 285.955 496.038 275.36 495.221 277.813C494.403 280.266 500.576 294.672 499.666 285.955Z" fill="#AFC0F9"/>
<path d="M243.035 398.707C243.035 398.707 214.983 410.948 214.176 433.427C213.37 455.906 221.236 417.742 236.92 420.886C252.605 424.03 259.088 392.212 243.035 398.707Z" fill="white"/>
<path d="M268.819 396.046C268.819 396.046 256.267 393.743 258.098 402.841C259.929 411.938 283.986 399.236 268.819 396.046Z" fill="white"/>
<path d="M390.784 387.156C390.784 387.156 385.682 394.722 392.995 395.77C400.307 396.818 404.522 384.266 390.784 387.156Z" fill="white"/>
<path d="M406.33 386.73C406.33 386.73 402.334 386.592 402.875 389.62C403.416 392.649 412.088 390.484 406.33 386.73Z" fill="white"/>
<path d="M449.204 261.403C449.204 261.403 429.339 266.769 429.627 271.272C429.915 275.775 443.446 266.666 438.517 275.256C433.588 283.847 469.771 256.773 449.204 261.403Z" fill="white"/>
<path d="M423.846 275.256C423.846 275.256 416.717 272.562 415.451 277.444C414.184 282.327 424.836 281.659 423.846 275.256Z" fill="white"/>
<path d="M273.806 297.701C273.806 297.701 253.653 304.081 248.954 320.917C244.256 337.753 259.146 308.399 268.819 306.729C278.493 305.059 280.105 297.666 273.806 297.701Z" fill="white"/>
<path d="M246.075 332.502C246.075 332.502 243.461 330.026 241.63 334.667C239.799 339.308 245.292 341.657 246.075 332.502Z" fill="white"/>
<path d="M234.559 258.743C234.559 258.743 223.815 262.854 222.122 268.946C220.429 275.038 243.945 257.925 234.559 258.743Z" fill="white"/>
<path d="M215.742 247.641C215.742 247.641 210.86 253.169 211.862 254.678C212.863 256.186 220.452 249.046 215.742 247.641Z" fill="white"/>
<path d="M372.37 332.502C372.37 332.502 362.938 327.55 363.975 325.984C365.011 324.418 376.527 326.894 377.057 333.826C377.586 340.759 374.558 333.722 372.37 332.502Z" fill="white"/>
<path d="M379.406 340.114C379.406 340.114 377.172 338.525 377.103 340.747C377.033 342.97 379.406 343.396 379.406 340.114Z" fill="white"/>
<path d="M330.912 327.158C330.912 327.158 330.129 334.506 332.479 337.108C334.828 339.711 333.077 324.279 330.912 327.158Z" fill="white"/>
<path d="M465.74 519.945C465.74 519.945 453.948 510.249 457.092 507.485C460.236 504.721 488.83 514.28 494.369 541.146C499.908 568.013 479.364 530.747 465.74 519.945Z" fill="white"/>
<path d="M497.697 561.472C497.697 561.472 495.486 553.169 501.152 555.933C506.817 558.696 500.829 570.88 497.697 561.472Z" fill="white"/>
<path d="M359.391 557.084C368.1 550.103 379.374 547.17 390.381 549.023C409.474 551.89 372.865 556.336 378.623 561.829C384.381 567.322 347.092 563.729 359.391 557.084Z" fill="white"/>
<path d="M401.885 548.505C401.885 548.505 412.088 542.171 416.787 547.664C421.485 553.157 396.933 552.466 401.885 548.505Z" fill="white"/>
<path d="M567.368 637.707C567.368 637.707 566.585 644.409 575.993 650.685C585.402 656.961 572.182 636.762 567.368 637.707Z" fill="white"/>
<path d="M430.709 733.553C430.709 733.553 422.544 746.981 425.412 751.115C428.279 755.249 434.567 734.348 430.709 733.553Z" fill="white"/>
<path d="M229.953 602.341C231.012 604.537 232.114 606.752 233.258 608.986" stroke="white" stroke-width="1.36" stroke-linecap="round"/>
<path d="M204.238 478.005C201.451 501.624 202.637 540.732 224.863 591.367" stroke="white" stroke-width="1.36" stroke-linecap="round"/>
<path d="M206.622 464.024C206.242 465.683 205.862 467.479 205.47 469.517" stroke="white" stroke-width="1.36" stroke-linecap="round"/>
<path d="M210.088 452.509C210.088 452.509 209.42 454.063 208.487 457.115" stroke="white" stroke-width="1.36" stroke-linecap="round"/>
<path d="M388.538 413.332C386.327 420.16 382.089 428.302 374.178 430.951" stroke="white" stroke-width="1.36" stroke-linecap="round"/>
<path d="M390.784 403.105C390.784 403.105 390.657 404.464 390.254 406.56" stroke="white" stroke-width="1.36" stroke-linecap="round"/>
<path d="M439.012 548.228C446.29 548.309 455.364 548.988 459.74 551.683" stroke="white" stroke-width="1.36" stroke-linecap="round"/>
<path d="M428.371 548.505C428.371 548.505 430.122 548.378 432.839 548.298" stroke="white" stroke-width="1.36" stroke-linecap="round"/>
<path d="M435.05 655.027C428.417 665.207 418.928 676.377 406.859 682.077" stroke="white" stroke-width="1.36" stroke-linecap="round"/>
<path d="M441.246 644.409C440.336 646.159 439.3 648.048 438.137 650.029" stroke="white" stroke-width="1.36" stroke-linecap="round"/>
<path d="M446.232 633.688C446.232 633.688 445.53 635.507 444.171 638.467" stroke="white" stroke-width="1.36" stroke-linecap="round"/>
<path d="M518.103 593.854C522.907 604.62 526.499 615.886 528.812 627.446" stroke="white" stroke-width="1.36" stroke-linecap="round"/>
<path d="M512.575 582.131C513.266 583.478 513.992 584.929 514.74 586.473" stroke="white" stroke-width="1.36" stroke-linecap="round"/>
<path d="M506.333 570.949C506.333 570.949 507.335 572.538 508.925 575.394" stroke="white" stroke-width="1.36" stroke-linecap="round"/>
<path d="M336.797 342.498L341.599 354.566" stroke="white" stroke-width="1.36" stroke-linecap="round"/>
<path d="M408.069 280.646L387.052 290.469" stroke="white" stroke-width="1.36" stroke-linecap="round"/>
<path d="M472.212 241.883C472.212 241.883 465.809 247.388 472.212 264.466" stroke="white" stroke-width="1.36" stroke-linecap="round"/>
<path d="M239.592 344.087C239.592 344.087 231.53 361.568 239.592 363.514" stroke="white" stroke-width="1.36" stroke-linecap="round"/>
<path d="M222.053 274.519C222.053 274.519 218.794 298.3 241.261 294.626" stroke="white" stroke-width="1.36" stroke-linecap="round"/>
<path d="M630.624 670.884C635.126 664.055 640.299 657.694 646.067 651.894" stroke="white" stroke-width="1.36" stroke-linecap="round"/>
<path d="M610.138 685.451C610.138 685.451 616.184 694.779 626.03 678.15" stroke="white" stroke-width="1.36" stroke-linecap="round"/>
<path d="M413.366 807.451C415.21 809.579 417.245 811.534 419.447 813.289" stroke="white" stroke-width="1.36" stroke-linecap="round"/>
<path d="M411.235 782.53C411.235 782.53 403.174 790.971 410.153 802.982" stroke="white" stroke-width="1.36" stroke-linecap="round"/>
<path d="M719.009 531.139C719.009 531.139 715.346 532.682 715.611 542.102C715.876 551.522 729.983 530.747 719.009 531.139Z" fill="white"/>
<path d="M717.972 547.998C717.972 547.998 714.103 547.019 714.517 550.75C714.932 554.482 719.999 552.155 717.972 547.998Z" fill="white"/>
<path d="M591.551 521.42C593.215 523.861 594.753 526.386 596.158 528.985" stroke="#1C1C1C" stroke-width="1.36" stroke-linecap="round"/>
<path d="M553.249 489.544C565.584 495.058 576.556 503.216 585.39 513.439" stroke="#1C1C1C" stroke-width="1.36" stroke-linecap="round"/>
<path d="M637.177 638.467C637.177 638.467 628.114 645.1 630.625 656.19" stroke="#1C1C1C" stroke-width="1.36" stroke-linecap="round"/>
<path d="M646.067 635.311C646.067 635.311 636.14 639.1 639.273 651.906" stroke="#1C1C1C" stroke-width="1.36" stroke-linecap="round"/>
<path d="M654.197 632.743C654.197 632.743 643.971 635.634 645.952 648.67" stroke="#1C1C1C" stroke-width="1.36" stroke-linecap="round"/>
<path d="M453.913 808.153C453.913 808.153 447.004 799.309 435.995 802.165" stroke="#1C1C1C" stroke-width="1.36" stroke-linecap="round"/>
<path d="M457.357 816.94C457.357 816.94 453.257 807.14 440.566 810.664" stroke="#1C1C1C" stroke-width="1.36" stroke-linecap="round"/>
<path d="M460.167 824.989C460.167 824.989 456.954 814.855 444.044 817.239" stroke="#1C1C1C" stroke-width="1.36" stroke-linecap="round"/>
<path d="M677.091 658.424C675.939 660.439 674.58 662.57 673.049 664.804" stroke="#1C1C1C" stroke-width="1.36" stroke-linecap="round"/>
<path d="M679.532 622.448C679.532 622.448 689.655 629.358 681.697 649.142" stroke="#1C1C1C" stroke-width="1.36" stroke-linecap="round"/>
<path d="M473.951 774.262C472.792 775.613 471.602 776.945 470.381 778.258" stroke="#1C1C1C" stroke-width="1.36" stroke-linecap="round"/>
<path d="M483.037 762.85C481.609 764.784 480.135 766.719 478.604 768.608" stroke="#1C1C1C" stroke-width="1.36" stroke-linecap="round"/>
<path d="M514.74 703.888C507.999 721.903 499.2 739.08 488.519 755.076" stroke="#1C1C1C" stroke-width="1.36" stroke-linecap="round"/>
<path d="M178.304 482.346C178.02 484.703 177.778 487.102 177.579 489.544" stroke="#1C1C1C" stroke-width="1.36" stroke-linecap="round"/>
<path d="M181.586 463.587C180.918 466.5 180.296 469.506 179.744 472.581" stroke="#1C1C1C" stroke-width="1.36" stroke-linecap="round"/>
<path d="M209.282 400.929C209.282 400.929 194.403 420.23 184.868 451.484" stroke="#1C1C1C" stroke-width="1.36" stroke-linecap="round"/>
<path d="M423.258 484.626C421.74 485.515 420.139 486.256 418.479 486.837" stroke="#1C1C1C" stroke-width="1.36" stroke-linecap="round"/>
<path d="M443.733 455.664C443.733 455.664 439.415 470.934 428.763 480.596" stroke="#1C1C1C" stroke-width="1.36" stroke-linecap="round"/>
</svg>
